<svg width="100" height="100" viewBox="0 0 100 100" fill="none" xmlns="http://www.w3.org/2000/svg">
<path d="M49.9996 3.33331L50.9129 0.133305C50.3159 -0.0367853 49.6833 -0.0367853 49.0863 0.133305L49.9996 3.33331ZM3.33295 16.6666L2.41961 13.4666C1.66299 13.6823 1.00704 14.1586 0.567817 14.8114C0.128592 15.4641 -0.0655953 16.2512 0.0196135 17.0333L3.33295 16.6666ZM9.99961 76.6666L6.68628 77.0333C6.74751 77.5862 6.94611 78.1149 7.264 78.5714C7.58189 79.0278 8.00896 79.3975 8.50628 79.6466L9.99961 76.6666ZM49.9996 96.6666L48.5063 99.6466C48.9698 99.8789 49.4811 99.9999 49.9996 99.9999C50.5181 99.9999 51.0294 99.8789 51.4929 99.6466L49.9996 96.6666ZM89.9996 76.6666L91.4929 79.6466C91.9903 79.3975 92.4173 79.0278 92.7352 78.5714C93.0531 78.1149 93.2517 77.5862 93.3129 77.0333L89.9996 76.6666ZM96.6663 16.6666L99.9796 17.0333C100.066 16.2501 99.8731 15.4615 99.4337 14.8073C98.9944 14.1532 98.3375 13.6758 97.5796 13.46L96.6663 16.6666ZM49.9996 20L53.0529 18.6666L49.9996 11.6866L46.9463 18.6666L49.9996 20ZM49.0863 0.133305L2.41961 13.4666L4.24628 19.8666L50.9129 6.5333L49.0863 0.133305ZM0.0196135 17.0266L6.68628 77.0266L13.3129 76.2933L6.64628 16.2933L0.0196135 17.0266ZM8.50628 79.64L48.5063 99.64L51.4929 93.68L11.4929 73.68L8.50628 79.64ZM51.4929 99.64L91.4929 79.64L88.5063 73.68L48.5063 93.68L51.4929 99.64ZM93.3129 77.0266L99.9796 17.0266L93.3529 16.2933L86.6863 76.2933L93.3129 77.0266ZM97.5796 13.4533L50.9129 0.119972L49.0863 6.5333L95.7529 19.8666L97.5796 13.4533ZM29.7196 74.6666L53.0529 21.3333L46.9463 18.6666L23.6129 72L29.7196 74.6666ZM46.9463 21.3333L70.2796 74.6666L76.3863 72L53.0529 18.6666L46.9463 21.3333ZM33.3329 60H66.6663V53.3333H33.3329V60Z" fill="#D4D4D4"/>
</svg>
