<svg width="50" height="50" viewBox="0 0 50 50" fill="none" xmlns="http://www.w3.org/2000/svg">
<path fill-rule="evenodd" clip-rule="evenodd" d="M5.14367 20.7688C5.28882 20.6233 5.46124 20.5078 5.65107 20.4291C5.8409 20.3503 6.0444 20.3098 6.24992 20.3098C6.45545 20.3098 6.65895 20.3503 6.84878 20.4291C7.03861 20.5078 7.21103 20.6233 7.35617 20.7688L24.9999 38.4157L42.6437 20.7688C42.9371 20.4754 43.335 20.3106 43.7499 20.3106C44.1648 20.3106 44.5628 20.4754 44.8562 20.7688C45.1496 21.0622 45.3144 21.4601 45.3144 21.875C45.3144 22.29 45.1496 22.6879 44.8562 22.9813L26.1062 41.7313C25.961 41.8768 25.7886 41.9923 25.5988 42.071C25.4089 42.1498 25.2054 42.1903 24.9999 42.1903C24.7944 42.1903 24.5909 42.1498 24.4011 42.071C24.2112 41.9923 24.0388 41.8768 23.8937 41.7313L5.14367 22.9813C4.99816 22.8362 4.88272 22.6637 4.80395 22.4739C4.72518 22.2841 4.68463 22.0806 4.68463 21.875C4.68463 21.6695 4.72518 21.466 4.80395 21.2762C4.88272 21.0864 4.99816 20.9139 5.14367 20.7688Z" fill="#D4D4D4"/>
<path fill-rule="evenodd" clip-rule="evenodd" d="M5.14367 8.2688C5.28882 8.12329 5.46124 8.00784 5.65107 7.92907C5.8409 7.8503 6.0444 7.80975 6.24992 7.80975C6.45545 7.80975 6.65895 7.8503 6.84878 7.92907C7.03861 8.00784 7.21103 8.12329 7.35617 8.2688L24.9999 25.9157L42.6437 8.2688C42.7889 8.12352 42.9614 8.00828 43.1512 7.92966C43.341 7.85104 43.5445 7.81057 43.7499 7.81057C43.9554 7.81057 44.1588 7.85104 44.3486 7.92966C44.5384 8.00828 44.7109 8.12352 44.8562 8.2688C45.0014 8.41407 45.1167 8.58654 45.1953 8.77635C45.2739 8.96616 45.3144 9.1696 45.3144 9.37505C45.3144 9.5805 45.2739 9.78393 45.1953 9.97374C45.1167 10.1636 45.0014 10.336 44.8562 10.4813L26.1062 29.2313C25.961 29.3768 25.7886 29.4923 25.5988 29.571C25.4089 29.6498 25.2054 29.6903 24.9999 29.6903C24.7944 29.6903 24.5909 29.6498 24.4011 29.571C24.2112 29.4923 24.0388 29.3768 23.8937 29.2313L5.14367 10.4813C4.99816 10.3362 4.88272 10.1637 4.80395 9.9739C4.72518 9.78407 4.68463 9.58057 4.68463 9.37505C4.68463 9.16952 4.72518 8.96602 4.80395 8.77619C4.88272 8.58636 4.99816 8.41394 5.14367 8.2688Z" fill="#D4D4D4"/>
</svg>
