<svg width="110" height="110" viewBox="0 0 110 110" fill="none" xmlns="http://www.w3.org/2000/svg">
<path d="M58.3334 20.5176H51.4584V58.7836L76.2971 70.5888L79.2484 64.3794L58.3334 54.439V20.5176Z" fill="#D4D4D4"/>
<path d="M55 3.4375C26.5229 3.4375 3.4375 26.5229 3.4375 55C3.4375 83.4771 26.5229 106.562 55 106.562C83.4771 106.562 106.562 83.4771 106.562 55C106.562 26.5229 83.4771 3.4375 55 3.4375ZM55 99.6875C30.3198 99.6875 10.3125 79.6802 10.3125 55C10.3125 30.3198 30.3198 10.3125 55 10.3125C79.6802 10.3125 99.6875 30.3198 99.6875 55C99.6875 79.6802 79.6802 99.6875 55 99.6875Z" fill="#D4D4D4"/>
</svg>
