<svg width="94" height="37" viewBox="0 0 94 37" fill="none" xmlns="http://www.w3.org/2000/svg">
<path d="M19.461 20.3828C19.461 23.3984 20.8229 24.9062 23.5469 24.9062C26.2136 24.9062 27.5469 23.3984 27.5469 20.3828C27.5469 17.4089 26.2136 15.9219 23.5469 15.9219C20.8229 15.9219 19.461 17.4089 19.461 20.3828ZM17.9375 20.4297C17.9375 16.6432 19.8073 14.75 23.5469 14.75C27.2292 14.75 29.0703 16.6432 29.0703 20.4297C29.0703 24.1953 27.2292 26.0781 23.5469 26.0781C19.8073 26.0781 17.9375 24.1953 17.9375 20.4297ZM31.3438 26V14.8281H35.875C38.1563 14.8281 39.2969 15.8255 39.2969 17.8203C39.2969 19.9922 37.737 21.3177 34.6172 21.7969L34.3203 20.5781C36.612 20.2396 37.7578 19.3411 37.7578 17.8828C37.7578 16.6432 37.086 16.0234 35.7422 16.0234H32.7891V26H31.3438ZM41.0625 25.6094V24.2812C42.2344 24.6979 43.5 24.9062 44.8594 24.9062C46.7813 24.9062 47.7422 24.2031 47.7422 22.7969C47.7422 21.599 47.0339 21 45.6172 21H44.1797C41.8412 21 40.6719 19.9844 40.6719 17.9531C40.6719 15.8177 42.1693 14.75 45.1641 14.75C46.4662 14.75 47.6771 14.9062 48.7969 15.2188V16.5469C47.6771 16.1302 46.4662 15.9219 45.1641 15.9219C43.1328 15.9219 42.1172 16.599 42.1172 17.9531C42.1172 19.151 42.8047 19.75 44.1797 19.75H45.6172C47.9974 19.75 49.1875 20.7656 49.1875 22.7969C49.1875 24.9844 47.7448 26.0781 44.8594 26.0781C43.5 26.0781 42.2344 25.9219 41.0625 25.6094ZM51.2969 26V14.8281H56.0625C58.1875 14.8281 59.25 15.6953 59.25 17.4297C59.25 18.7005 58.5573 19.6094 57.1719 20.1562C58.6511 20.4323 59.3907 21.2786 59.3907 22.6953C59.3907 24.8984 58.2266 26 55.8985 26H51.2969ZM55.8125 24.8281C57.1459 24.8281 57.8125 24.151 57.8125 22.7969C57.8125 21.4792 56.9193 20.8203 55.1328 20.8203H54.5078V19.875C56.6433 19.5885 57.711 18.8177 57.711 17.5625C57.711 16.5208 57.1172 16 55.9297 16H52.7422V24.8281H55.8125ZM61.6875 26V14.8281H66.4532C68.5782 14.8281 69.6407 15.7214 69.6407 17.5078C69.6407 18.9609 68.6016 20.0365 66.5235 20.7344L70.3594 26H68.4532L64.8985 20.9766V20.0312C67.0339 19.6927 68.1016 18.8724 68.1016 17.5703C68.1016 16.5391 67.5078 16.0234 66.3203 16.0234H63.1328V26H61.6875ZM73.0235 20.3828C73.0235 23.3984 74.3854 24.9062 77.1094 24.9062C79.7761 24.9062 81.1094 23.3984 81.1094 20.3828C81.1094 17.4089 79.7761 15.9219 77.1094 15.9219C74.3854 15.9219 73.0235 17.4089 73.0235 20.3828ZM71.5 20.4297C71.5 16.6432 73.3698 14.75 77.1094 14.75C80.7917 14.75 82.6328 16.6432 82.6328 20.4297C82.6328 24.1953 80.7917 26.0781 77.1094 26.0781C73.3698 26.0781 71.5 24.1953 71.5 20.4297ZM84.75 25.6094V24.2812C85.9219 24.6979 87.1875 24.9062 88.5469 24.9062C90.4688 24.9062 91.4297 24.2031 91.4297 22.7969C91.4297 21.599 90.7214 21 89.3047 21H87.8672C85.5287 21 84.3594 19.9844 84.3594 17.9531C84.3594 15.8177 85.8568 14.75 88.8516 14.75C90.1537 14.75 91.3646 14.9062 92.4844 15.2188V16.5469C91.3646 16.1302 90.1537 15.9219 88.8516 15.9219C86.8203 15.9219 85.8047 16.599 85.8047 17.9531C85.8047 19.151 86.4922 19.75 87.8672 19.75H89.3047C91.6849 19.75 92.875 20.7656 92.875 22.7969C92.875 24.9844 91.4323 26.0781 88.5469 26.0781C87.1875 26.0781 85.9219 25.9219 84.75 25.6094Z" fill="#D4D4D4"/>
<path d="M22.98 22.98C20.4027 26.6608 17.3141 29.4341 14.4254 30.9536C11.511 32.4866 8.93999 32.6815 7.24957 31.4978C5.55914 30.3142 4.86297 27.8316 5.30672 24.5686C5.74657 21.3344 7.29624 17.4836 9.87357 13.8028C12.4509 10.122 15.5395 7.34871 18.4282 5.82923C21.3426 4.29624 23.9136 4.10133 25.604 5.28498C27.2944 6.46862 27.9906 8.95124 27.5469 12.2142C27.107 15.4484 25.5573 19.2992 22.98 22.98Z" stroke="#7424FF"/>
</svg>
