<svg width="85" height="70" viewBox="0 0 85 70" fill="none" xmlns="http://www.w3.org/2000/svg">
<path d="M39.3096 13.587C39.3096 3.96246 39.3096 3 20.3764 3C2.00004 3 2 3 2 13.1058C2 23.2116 1.99986 10.2184 22.6037 10.2184C39.3095 10.2184 39.3096 23.2116 39.3096 13.587Z" stroke="#7424FF" stroke-width="4"/>
<path d="M20.8675 68C36.0482 68 39 62.3721 39 46C39 31.6744 36.8916 24 22.5542 24C8.21687 24 4 28.6047 4 46C4 63.3954 9.90361 68 20.8675 68Z" stroke="white" stroke-width="4"/>
<path d="M64.8675 68C80.0482 68 83 62.3721 83 46C83 31.6744 80.8916 24 66.5542 24C52.2169 24 48 28.6047 48 46C48 63.3954 53.9036 68 64.8675 68Z" stroke="white" stroke-width="4"/>
<line x1="47.6853" y1="47.8194" x2="47.6853" y2="0.689411" stroke="white" stroke-width="4"/>
</svg>
