<svg width="45" height="45" viewBox="0 0 45 45" fill="none" xmlns="http://www.w3.org/2000/svg">
<path d="M30.9375 18.2812C30.9375 17.9083 31.0857 17.5506 31.3494 17.2869C31.6131 17.0232 31.9708 16.875 32.3438 16.875H35.1562C35.5292 16.875 35.8869 17.0232 36.1506 17.2869C36.4143 17.5506 36.5625 17.9083 36.5625 18.2812V21.0938C36.5625 21.4667 36.4143 21.8244 36.1506 22.0881C35.8869 22.3518 35.5292 22.5 35.1562 22.5H32.3438C31.9708 22.5 31.6131 22.3518 31.3494 22.0881C31.0857 21.8244 30.9375 21.4667 30.9375 21.0938V18.2812Z" fill="white"/>
<path d="M9.84375 0C10.2167 0 10.5744 0.148158 10.8381 0.411881C11.1018 0.675604 11.25 1.03329 11.25 1.40625V2.8125H33.75V1.40625C33.75 1.03329 33.8982 0.675604 34.1619 0.411881C34.4256 0.148158 34.7833 0 35.1562 0C35.5292 0 35.8869 0.148158 36.1506 0.411881C36.4143 0.675604 36.5625 1.03329 36.5625 1.40625V2.8125H39.375C40.8668 2.8125 42.2976 3.40513 43.3525 4.46002C44.4074 5.51492 45 6.94566 45 8.4375V39.375C45 40.8668 44.4074 42.2976 43.3525 43.3525C42.2976 44.4074 40.8668 45 39.375 45H5.625C4.13316 45 2.70242 44.4074 1.64752 43.3525C0.592632 42.2976 0 40.8668 0 39.375V8.4375C0 6.94566 0.592632 5.51492 1.64752 4.46002C2.70242 3.40513 4.13316 2.8125 5.625 2.8125H8.4375V1.40625C8.4375 1.03329 8.58566 0.675604 8.84938 0.411881C9.1131 0.148158 9.47079 0 9.84375 0V0ZM2.8125 11.25V39.375C2.8125 40.1209 3.10882 40.8363 3.63626 41.3637C4.16371 41.8912 4.87908 42.1875 5.625 42.1875H39.375C40.1209 42.1875 40.8363 41.8912 41.3637 41.3637C41.8912 40.8363 42.1875 40.1209 42.1875 39.375V11.25H2.8125Z" fill="white"/>
</svg>
