<svg width="40" height="40" viewBox="0 0 40 40" fill="none" xmlns="http://www.w3.org/2000/svg">
<path d="M8.30499 11.9947C10.319 11.9947 11.9517 10.3621 11.9517 8.34808C11.9517 6.33408 10.319 4.70142 8.30499 4.70142C6.29099 4.70142 4.65833 6.33408 4.65833 8.34808C4.65833 10.3621 6.29099 11.9947 8.30499 11.9947Z" fill="#D4D4D4"/>
<path d="M15.395 14.7585V34.9902H21.6767V24.9852C21.6767 22.3452 22.1733 19.7885 25.4467 19.7885C28.675 19.7885 28.715 22.8069 28.715 25.1519V34.9919H35V23.8969C35 18.4469 33.8267 14.2585 27.4567 14.2585C24.3983 14.2585 22.3483 15.9369 21.51 17.5252H21.425V14.7585H15.395ZM5.15833 14.7585H11.45V34.9902H5.15833V14.7585Z" fill="#D4D4D4"/>
</svg>
