<svg width="100" height="100" viewBox="0 0 100 100" fill="none" xmlns="http://www.w3.org/2000/svg">
<path d="M72.6562 6.05469H27.3438C23.8965 6.05469 21.0938 8.85742 21.0938 12.3047V87.3047C21.0938 90.752 23.8965 93.5547 27.3438 93.5547H72.6562C76.1035 93.5547 78.9062 90.752 78.9062 87.3047V12.3047C78.9062 8.85742 76.1035 6.05469 72.6562 6.05469ZM71.875 86.5234H28.125V13.0859H71.875V86.5234ZM46.0938 76.5625C46.0938 77.5985 46.5053 78.5921 47.2379 79.3246C47.9704 80.0572 48.964 80.4688 50 80.4688C51.036 80.4688 52.0296 80.0572 52.7621 79.3246C53.4947 78.5921 53.9062 77.5985 53.9062 76.5625C53.9062 75.5265 53.4947 74.5329 52.7621 73.8004C52.0296 73.0678 51.036 72.6562 50 72.6562C48.964 72.6562 47.9704 73.0678 47.2379 73.8004C46.5053 74.5329 46.0938 75.5265 46.0938 76.5625Z" fill="#D4D4D4"/>
</svg>
