<svg width="100" height="100" viewBox="0 0 100 100" fill="none" xmlns="http://www.w3.org/2000/svg">
<path d="M50 41.0814C45.0844 41.0814 41.0812 45.0845 41.0812 50.0001C41.0812 54.9157 45.0844 58.9189 50 58.9189C54.9156 58.9189 58.9188 54.9157 58.9188 50.0001C58.9188 45.0845 54.9156 41.0814 50 41.0814ZM25.0312 67.7251L23.0625 67.2376C8.4125 63.5251 0 57.2439 0 49.9845C0 42.7251 8.41563 36.4439 23.0625 32.7314L25.0312 32.2439L25.5844 34.197C27.0705 39.3127 28.9706 44.2989 31.2656 49.1064L31.6875 49.9845L31.2656 50.8782C28.9658 55.6836 27.0656 60.6703 25.5844 65.7876L25.0312 67.7251ZM22.1531 37.2876C11.0188 40.4126 4.18437 45.2126 4.18437 49.9845C4.18437 54.7564 11.0219 59.5376 22.1531 62.6814C23.5177 58.3459 25.1649 54.1045 27.0844 49.9845C25.1623 45.8656 23.5149 41.6241 22.1531 37.2876ZM74.9688 67.7251L74.4156 65.772C72.9321 60.6605 71.0319 55.6792 68.7344 50.8782L68.3125 49.9845L68.7344 49.0907C71.0342 44.2853 72.9344 39.2987 74.4156 34.1814L74.9688 32.2439L76.9375 32.7314C91.5875 36.4439 100 42.7251 100 49.9845C100 57.2439 91.5844 63.5251 76.9375 67.2376L74.9688 67.7251ZM72.9156 49.9845C74.8414 54.1017 76.4889 58.3436 77.8469 62.6814C88.9969 59.5407 95.8156 54.7564 95.8156 49.9845C95.8156 45.2126 88.9781 40.4314 77.8469 37.2876C76.4791 41.622 74.8319 45.8632 72.9156 49.9845ZM22.1187 37.272L21.5656 35.3189C17.4469 20.8001 18.7 10.3845 25 6.75323C31.1844 3.18761 41.0969 7.40323 51.4969 18.0814L52.9125 19.5314L51.4969 20.9814C47.8036 24.8239 44.4289 28.9605 41.4062 33.3501L40.8375 34.147L39.8594 34.2282C34.5421 34.6479 29.2676 35.4976 24.0875 36.7689L22.1187 37.272ZM30.0281 9.65323C28.9062 9.65323 27.9125 9.88136 27.0813 10.3689C22.9469 12.7626 22.2156 21.0626 25.0625 32.2595C29.5045 31.2658 34.0069 30.5643 38.5406 30.1595C41.1508 26.4419 44.005 22.9019 47.0844 19.5626C40.5906 13.2314 34.4375 9.65011 30.0281 9.65011V9.65323ZM69.9875 94.4814C69.9719 94.4814 69.9719 94.4814 69.9875 94.4814C64.0469 94.4814 56.4125 90.022 48.5031 81.8845L47.0875 80.4345L48.5031 78.9845C52.1964 75.1419 55.5711 71.0054 58.5938 66.6157L59.1469 65.8189L60.125 65.722C65.4491 65.3164 70.73 64.4665 75.9125 63.1814L77.8813 62.6939L78.4344 64.647C82.5531 79.1657 81.3 89.5657 75 93.1939C73.4768 94.0693 71.744 94.5133 69.9875 94.4782V94.4814ZM52.9125 80.4032C59.4062 86.7345 65.5594 90.3157 69.9688 90.3157H69.9844C71.0906 90.3157 72.0844 90.072 72.9156 89.6001C77.05 87.2064 77.8 78.9064 74.9344 67.7095C70.4932 68.7042 65.9904 69.4005 61.4563 69.7939C58.8462 73.5164 55.992 77.0617 52.9125 80.4064V80.4032ZM77.8813 37.272L75.9125 36.7689C70.7263 35.5018 65.4469 34.6522 60.125 34.2282L59.1469 34.147L58.5938 33.3501C55.5711 28.9605 52.1964 24.8239 48.5031 20.9814L47.0875 19.5314L48.5031 18.0814C58.9031 7.40323 68.8156 3.18761 75 6.75323C81.3 10.3814 82.5531 20.8001 78.4344 35.3189L77.8813 37.272ZM61.4594 30.1595C65.9933 30.5632 70.4957 31.2648 74.9375 32.2595C77.8031 21.0626 77.0531 12.7595 72.9187 10.3689C68.8 7.99386 61.0531 11.6376 52.9156 19.5657C55.9867 22.9122 58.8404 26.4517 61.4594 30.1626V30.1595ZM30.0281 94.4814C28.2688 94.5126 26.5281 94.0751 25 93.197C18.7 89.5689 17.4469 79.1657 21.5656 64.6501L22.1187 62.697L24.0875 63.1845C28.9062 64.4064 34.2125 65.2501 39.8594 65.7251L40.8375 65.822L41.3906 66.6189C44.4133 71.0085 47.788 75.145 51.4813 78.9876L52.8969 80.4376L51.4813 81.8876C43.5875 90.0251 35.9531 94.4845 30.0281 94.4845V94.4814ZM25.0656 67.7095C22.2 78.9064 22.95 87.2095 27.0844 89.6001C31.2031 91.9439 38.9344 88.3314 47.0875 80.4032C44.008 77.0586 41.1538 73.5133 38.5437 69.7907C34.0094 69.3986 29.5066 68.7022 25.0656 67.7064V67.7095ZM50 70.3282C46.5656 70.3282 43.05 70.1814 39.5187 69.8876L38.5406 69.8064L37.9719 68.9939C35.9772 66.1279 34.1037 63.1794 32.3563 60.1564C30.6052 57.1332 28.9819 54.0377 27.4906 50.8782L27.0687 49.9845L27.4906 49.0907C30.4782 42.7732 33.9839 36.7139 37.9719 30.9751L38.5406 30.1626L39.5187 30.0814C46.4939 29.4939 53.5061 29.4939 60.4813 30.0814L61.4594 30.1626L62.0281 30.9751C66.0212 36.7106 69.5272 42.7703 72.5094 49.0907L72.9313 49.9845L72.5094 50.8782C69.5332 57.2018 66.0269 63.262 62.0281 68.9939L61.4594 69.8064L60.4813 69.8876C56.9951 70.1793 53.4983 70.3263 50 70.3282ZM40.8531 65.8032C47.0062 66.2751 52.9937 66.2751 59.1625 65.8032C62.6028 60.7654 65.6604 55.4766 68.3094 49.9814C65.6716 44.477 62.6081 39.187 59.1469 34.1595C53.0581 33.6876 46.9419 33.6876 40.8531 34.1595C37.3894 39.1854 34.3258 44.4756 31.6906 49.9814C34.3404 55.4794 37.4033 60.7685 40.8531 65.8032Z" fill="#D4D4D4"/>
</svg>
