<svg width="120" height="105" viewBox="0 0 120 105" fill="none" xmlns="http://www.w3.org/2000/svg">
<path d="M78.435 37.6875C80.2731 37.688 82.0471 38.3634 83.4201 39.5857C84.793 40.8079 85.6693 42.4918 85.8825 44.3175L85.935 45.1875V77.9475C85.984 84.7864 83.3498 91.372 78.5978 96.2906C73.8458 101.209 67.3549 104.069 60.5183 104.255C53.6817 104.442 47.0445 101.94 42.0314 97.2882C37.0183 92.6361 34.0289 86.2039 33.705 79.3725L33.6675 77.9475V45.1875C33.668 43.3493 34.3434 41.5754 35.5657 40.2024C36.7879 38.8295 38.4718 37.9532 40.2975 37.74L41.1675 37.6875H78.435ZM78.435 45.1875H41.1675V77.9475C41.1566 82.7898 43.0316 87.4461 46.3951 90.9296C49.7585 94.4132 54.3462 96.4503 59.1859 96.6092C64.0256 96.7682 68.7371 95.0365 72.3219 91.7812C75.9067 88.5258 78.0831 84.0026 78.39 79.17L78.435 77.9475V45.1875ZM28.185 37.6875C27.0937 39.5705 26.4281 41.6697 26.235 43.8375L26.1675 45.1875H7.4925V73.2375C7.4917 75.5628 8.07345 77.8513 9.18462 79.894C10.2958 81.9366 11.901 83.6684 13.8536 84.9311C15.8062 86.1938 18.0441 86.9473 20.3628 87.1226C22.6815 87.298 25.0072 86.8897 27.1275 85.935C27.7275 88.4025 28.5975 90.765 29.715 92.985C26.5569 94.3113 23.1267 94.861 19.7123 94.5878C16.2979 94.3146 12.9988 93.2265 10.0917 91.4148C7.1847 89.6032 4.75454 87.1208 3.00511 84.1759C1.25569 81.231 0.238028 77.9095 0.0375009 74.49L0 73.23V45.1875C0.000242329 43.3505 0.674671 41.5775 1.89537 40.2047C3.11606 38.8319 4.79812 37.9549 6.6225 37.74L7.5 37.6875H28.1775H28.185ZM91.425 37.6875H112.305C114.143 37.688 115.917 38.3634 117.29 39.5857C118.663 40.8079 119.539 42.4918 119.752 44.3175L119.805 45.1875V73.2375C119.805 76.7843 118.925 80.2757 117.243 83.3982C115.56 86.5207 113.129 89.1766 110.167 91.1275C107.205 93.0784 103.805 94.2633 100.272 94.5757C96.7388 94.8881 93.1834 94.3183 89.925 92.9175C91.035 90.6825 91.905 88.32 92.4975 85.845C94.5348 86.7955 96.772 87.2385 99.0178 87.136C101.264 87.0335 103.451 86.3886 105.393 85.2564C107.336 84.1243 108.975 82.5385 110.17 80.6348C111.366 78.7311 112.083 76.5661 112.26 74.325L112.305 73.2375V45.1875H93.435L93.39 44.07C93.2263 41.8212 92.5544 39.639 91.425 37.6875ZM59.79 0C64.2208 0 68.4701 1.76012 71.6031 4.89315C74.7361 8.02618 76.4963 12.2755 76.4963 16.7062C76.4963 21.137 74.7361 25.3863 71.6031 28.5193C68.4701 31.6524 64.2208 33.4125 59.79 33.4125C55.3592 33.4125 51.1099 31.6524 47.9769 28.5193C44.8439 25.3863 43.0838 21.137 43.0838 16.7062C43.0838 12.2755 44.8439 8.02618 47.9769 4.89315C51.1099 1.76012 55.3592 0 59.79 0ZM97.1925 4.71C100.999 4.71 104.649 6.222 107.34 8.91338C110.032 11.6048 111.544 15.2551 111.544 19.0612C111.544 22.8674 110.032 26.5177 107.34 29.2091C104.649 31.9005 100.999 33.4125 97.1925 33.4125C93.3863 33.4125 89.736 31.9005 87.0446 29.2091C84.3533 26.5177 82.8412 22.8674 82.8412 19.0612C82.8412 15.2551 84.3533 11.6048 87.0446 8.91338C89.736 6.222 93.3863 4.71 97.1925 4.71ZM22.5 4.71C26.3062 4.71 29.9565 6.222 32.6479 8.91338C35.3393 11.6048 36.8512 15.2551 36.8512 19.0612C36.8512 22.8674 35.3393 26.5177 32.6479 29.2091C29.9565 31.9005 26.3062 33.4125 22.5 33.4125C18.6938 33.4125 15.0435 31.9005 12.3521 29.2091C9.66075 26.5177 8.14875 22.8674 8.14875 19.0612C8.14875 15.2551 9.66075 11.6048 12.3521 8.91338C15.0435 6.222 18.6938 4.71 22.5 4.71ZM59.79 7.5C57.3484 7.5 55.0067 8.46994 53.2802 10.1964C51.5537 11.923 50.5838 14.2646 50.5838 16.7062C50.5838 19.1479 51.5537 21.4895 53.2802 23.216C55.0067 24.9426 57.3484 25.9125 59.79 25.9125C62.2317 25.9125 64.5733 24.9426 66.2998 23.216C68.0263 21.4895 68.9963 19.1479 68.9963 16.7062C68.9963 14.2646 68.0263 11.923 66.2998 10.1964C64.5733 8.46994 62.2317 7.5 59.79 7.5ZM97.1925 12.21C95.3754 12.21 93.6328 12.9318 92.3479 14.2167C91.0631 15.5015 90.3412 17.2442 90.3412 19.0612C90.3412 20.8783 91.0631 22.621 92.3479 23.9058C93.6328 25.1907 95.3754 25.9125 97.1925 25.9125C99.0096 25.9125 100.752 25.1907 102.037 23.9058C103.322 22.621 104.044 20.8783 104.044 19.0612C104.044 17.2442 103.322 15.5015 102.037 14.2167C100.752 12.9318 99.0096 12.21 97.1925 12.21ZM22.5 12.21C20.6829 12.21 18.9403 12.9318 17.6554 14.2167C16.3706 15.5015 15.6487 17.2442 15.6487 19.0612C15.6487 20.8783 16.3706 22.621 17.6554 23.9058C18.9403 25.1907 20.6829 25.9125 22.5 25.9125C24.3171 25.9125 26.0597 25.1907 27.3446 23.9058C28.6294 22.621 29.3512 20.8783 29.3512 19.0612C29.3512 17.2442 28.6294 15.5015 27.3446 14.2167C26.0597 12.9318 24.3171 12.21 22.5 12.21Z" fill="#D4D4D4"/>
</svg>
