<svg width="47" height="33" viewBox="0 0 47 33" fill="none" xmlns="http://www.w3.org/2000/svg">
<path d="M24.2112 0.375C20.9075 0.380312 17.6879 1.41726 15.0021 3.34105C12.3163 5.26483 10.2983 7.97938 9.23 11.1056C4.085 11.8556 0.125 16.2638 0.125 21.6113C0.125 27.465 4.89313 32.25 10.79 32.25H38.0637C42.98 32.25 47 28.2525 47 23.3363C46.9949 21.3079 46.2985 19.3419 45.0257 17.7627C43.7529 16.1834 41.9797 15.0852 39.9988 14.6494C39.2094 6.65813 32.435 0.375 24.2112 0.375ZM24.2188 4.125C30.8469 4.125 36.2225 9.55875 36.2225 16.2C36.2225 17.4994 36.0144 18.7838 35.615 20.0063C34.76 22.6481 38.6938 23.7375 39.4531 21.2681C39.7194 20.4844 39.9275 19.6631 40.0606 18.84C40.9996 19.2013 41.807 19.8387 42.3764 20.6681C42.9458 21.4976 43.2504 22.4802 43.25 23.4863C43.2485 24.8155 42.7198 26.0899 41.7799 27.0299C40.8399 27.9698 39.5655 28.4985 38.2363 28.5H10.6362C8.84189 28.4985 7.12158 27.7844 5.85366 26.5147C4.58573 25.245 3.874 23.5237 3.875 21.7294C3.875 17.9794 6.9125 14.9531 10.6344 14.9531C12.4194 14.9531 14.1125 15.6656 15.3856 16.9463C17.285 18.8588 20.1744 15.9675 18.2544 14.0344C16.8825 12.6712 15.1708 11.7001 13.2969 11.2219C14.2421 9.11388 15.7751 7.32319 17.7123 6.06444C19.6495 4.8057 21.9086 4.13231 24.2188 4.125Z" fill="#7424FF"/>
</svg>
