<svg width="47" height="32" viewBox="0 0 47 32" fill="none" xmlns="http://www.w3.org/2000/svg">
<path d="M24.0863 0C20.7825 0.00531187 17.5629 1.04226 14.8771 2.96605C12.1913 4.88983 10.1733 7.60438 9.105 10.7306C3.96 11.4806 0 15.8888 0 21.2363C0 27.09 4.76813 31.875 10.665 31.875H37.9387C42.855 31.875 46.875 27.8775 46.875 22.9613C46.8699 20.9329 46.1735 18.9669 44.9007 17.3877C43.6279 15.8084 41.8547 14.7102 39.8738 14.2744C39.0844 6.28313 32.31 0 24.0863 0ZM24.0938 3.75C30.7219 3.75 36.0975 9.18375 36.0975 15.825C36.0975 17.1244 35.8894 18.4088 35.49 19.6313C34.635 22.2731 38.5688 23.3625 39.3281 20.8931C39.5944 20.1094 39.8025 19.2881 39.9356 18.465C40.8746 18.8263 41.682 19.4637 42.2514 20.2931C42.8208 21.1226 43.1254 22.1052 43.125 23.1113C43.1235 24.4405 42.5948 25.7149 41.6549 26.6549C40.7149 27.5948 39.4405 28.1235 38.1113 28.125H10.5112C8.71689 28.1235 6.99658 27.4094 5.72866 26.1397C4.46073 24.87 3.74901 23.1487 3.75 21.3544C3.75 17.6044 6.7875 14.5781 10.5094 14.5781C12.2944 14.5781 13.9875 15.2906 15.2606 16.5713C17.16 18.4838 20.0494 15.5925 18.1294 13.6594C16.7575 12.2962 15.0458 11.3251 13.1719 10.8469C14.1171 8.73888 15.6501 6.94819 17.5873 5.68944C19.5245 4.4307 21.7836 3.75731 24.0938 3.75Z" fill="#0582CA"/>
</svg>
