<svg width="105" height="25" viewBox="0 0 105 25" fill="none" xmlns="http://www.w3.org/2000/svg">
<path d="M30.4609 12.3828C30.4609 15.3984 31.8229 16.9062 34.5469 16.9062C37.2135 16.9062 38.5469 15.3984 38.5469 12.3828C38.5469 9.40885 37.2135 7.92188 34.5469 7.92188C31.8229 7.92188 30.4609 9.40885 30.4609 12.3828ZM28.9375 12.4297C28.9375 8.64323 30.8073 6.75 34.5469 6.75C38.2292 6.75 40.0703 8.64323 40.0703 12.4297C40.0703 16.1953 38.2292 18.0781 34.5469 18.0781C30.8073 18.0781 28.9375 16.1953 28.9375 12.4297ZM42.3438 18V6.82812H46.875C49.1562 6.82812 50.2969 7.82552 50.2969 9.82031C50.2969 11.9922 48.737 13.3177 45.6172 13.7969L45.3203 12.5781C47.612 12.2396 48.7578 11.3411 48.7578 9.88281C48.7578 8.64323 48.0859 8.02344 46.7422 8.02344H43.7891V18H42.3438ZM52.0625 17.6094V16.2812C53.2344 16.6979 54.5 16.9062 55.8594 16.9062C57.7812 16.9062 58.7422 16.2031 58.7422 14.7969C58.7422 13.599 58.0339 13 56.6172 13H55.1797C52.8411 13 51.6719 11.9844 51.6719 9.95312C51.6719 7.81771 53.1693 6.75 56.1641 6.75C57.4661 6.75 58.6771 6.90625 59.7969 7.21875V8.54688C58.6771 8.13021 57.4661 7.92188 56.1641 7.92188C54.1328 7.92188 53.1172 8.59896 53.1172 9.95312C53.1172 11.151 53.8047 11.75 55.1797 11.75H56.6172C58.9974 11.75 60.1875 12.7656 60.1875 14.7969C60.1875 16.9844 58.7448 18.0781 55.8594 18.0781C54.5 18.0781 53.2344 17.9219 52.0625 17.6094ZM62.2969 18V6.82812H67.0625C69.1875 6.82812 70.25 7.69531 70.25 9.42969C70.25 10.7005 69.5573 11.6094 68.1719 12.1562C69.651 12.4323 70.3906 13.2786 70.3906 14.6953C70.3906 16.8984 69.2266 18 66.8984 18H62.2969ZM66.8125 16.8281C68.1458 16.8281 68.8125 16.151 68.8125 14.7969C68.8125 13.4792 67.9193 12.8203 66.1328 12.8203H65.5078V11.875C67.6432 11.5885 68.7109 10.8177 68.7109 9.5625C68.7109 8.52083 68.1172 8 66.9297 8H63.7422V16.8281H66.8125ZM72.6875 18V6.82812H77.4531C79.5781 6.82812 80.6406 7.72135 80.6406 9.50781C80.6406 10.9609 79.6016 12.0365 77.5234 12.7344L81.3594 18H79.4531L75.8984 12.9766V12.0312C78.0339 11.6927 79.1016 10.8724 79.1016 9.57031C79.1016 8.53906 78.5078 8.02344 77.3203 8.02344H74.1328V18H72.6875ZM84.0234 12.3828C84.0234 15.3984 85.3854 16.9062 88.1094 16.9062C90.776 16.9062 92.1094 15.3984 92.1094 12.3828C92.1094 9.40885 90.776 7.92188 88.1094 7.92188C85.3854 7.92188 84.0234 9.40885 84.0234 12.3828ZM82.5 12.4297C82.5 8.64323 84.3698 6.75 88.1094 6.75C91.7917 6.75 93.6328 8.64323 93.6328 12.4297C93.6328 16.1953 91.7917 18.0781 88.1094 18.0781C84.3698 18.0781 82.5 16.1953 82.5 12.4297ZM95.75 17.6094V16.2812C96.9219 16.6979 98.1875 16.9062 99.5469 16.9062C101.469 16.9062 102.43 16.2031 102.43 14.7969C102.43 13.599 101.721 13 100.305 13H98.8672C96.5286 13 95.3594 11.9844 95.3594 9.95312C95.3594 7.81771 96.8568 6.75 99.8516 6.75C101.154 6.75 102.365 6.90625 103.484 7.21875V8.54688C102.365 8.13021 101.154 7.92188 99.8516 7.92188C97.8203 7.92188 96.8047 8.59896 96.8047 9.95312C96.8047 11.151 97.4922 11.75 98.8672 11.75H100.305C102.685 11.75 103.875 12.7656 103.875 14.7969C103.875 16.9844 102.432 18.0781 99.5469 18.0781C98.1875 18.0781 96.9219 17.9219 95.75 17.6094Z" fill="#D4D4D4"/>
<path d="M3.5 19.25L1 17.875V14.75" stroke="#0582CA" stroke-width="2" stroke-linecap="round" stroke-linejoin="round"/>
<path d="M1 9.75V6.625L3.5 5.25" stroke="#0582CA" stroke-width="2" stroke-linecap="round" stroke-linejoin="round"/>
<path d="M8.5 2.375L11 1L13.5 2.375" stroke="#0582CA" stroke-width="2" stroke-linecap="round" stroke-linejoin="round"/>
<path d="M18.5 5.25L21 6.625V9.75" stroke="#0582CA" stroke-width="2" stroke-linecap="round" stroke-linejoin="round"/>
<path d="M21 14.75V17.875L18.5 19.275" stroke="#0582CA" stroke-width="2" stroke-linecap="round" stroke-linejoin="round"/>
<path d="M13.5 22.125L11 23.5L8.5 22.125" stroke="#0582CA" stroke-width="2" stroke-linecap="round" stroke-linejoin="round"/>
<path d="M18.5 8L21 6.625" stroke="#0582CA" stroke-width="2" stroke-linecap="round" stroke-linejoin="round"/>
<path d="M11 20.375V23.5" stroke="#0582CA" stroke-width="2" stroke-linecap="round" stroke-linejoin="round"/>
<path d="M3.5 8L1 6.625" stroke="#0582CA" stroke-width="2" stroke-linecap="round" stroke-linejoin="round"/>
<path d="M10.923 7.5C10.042 7.50142 9.18345 7.77794 8.46723 8.29095C7.75101 8.80395 7.21288 9.52784 6.928 10.3615C5.556 10.5615 4.5 11.737 4.5 13.163C4.5 14.724 5.7715 16 7.344 16H14.617C15.928 16 17 14.934 17 13.623C16.9986 13.0821 16.8129 12.5578 16.4735 12.1367C16.1341 11.7156 15.6613 11.4227 15.133 11.3065C14.9225 9.1755 13.116 7.5 10.923 7.5ZM10.925 8.5C12.6925 8.5 14.126 9.949 14.126 11.72C14.126 12.0665 14.0705 12.409 13.964 12.735C13.736 13.4395 14.785 13.73 14.9875 13.0715C15.0585 12.8625 15.114 12.6435 15.1495 12.424C15.3999 12.5203 15.6152 12.6903 15.767 12.9115C15.9189 13.1327 16.0001 13.3947 16 13.663C15.9996 14.0175 15.8586 14.3573 15.608 14.608C15.3573 14.8586 15.0175 14.9996 14.663 15H7.303C6.8245 14.9996 6.36576 14.8092 6.02764 14.4706C5.68953 14.132 5.49973 13.673 5.5 13.1945C5.5 12.1945 6.31 11.3875 7.3025 11.3875C7.7785 11.3875 8.23 11.5775 8.5695 11.919C9.076 12.429 9.8465 11.658 9.3345 11.1425C8.96867 10.779 8.51221 10.52 8.0125 10.3925C8.26455 9.83037 8.67337 9.35285 9.18995 9.01718C9.70653 8.68152 10.3089 8.50195 10.925 8.5Z" fill="#0582CA"/>
</svg>
